<?xml version="1.0" standalone="no"?>
<!DOCTYPE svg PUBLIC "-//W3C//DTD SVG 20010904//EN"
 "http://www.w3.org/TR/2001/REC-SVG-20010904/DTD/svg10.dtd">
<svg version="1.0" xmlns="http://www.w3.org/2000/svg"
 width="1280.000000pt" height="1226.000000pt" viewBox="0 0 1280.000000 1226.000000"
 preserveAspectRatio="xMidYMid meet">
<metadata>
Created by potrace 1.15, written by Peter Selinger 2001-2017
</metadata>
<g transform="translate(0.000000,1226.000000) scale(0.100000,-0.100000)"
fill="#808080" stroke="none">
<path d="M2004 12245 c-302 -55 -562 -269 -677 -557 -37 -92 -54 -179 -67
-348 -6 -80 -15 -190 -20 -245 -6 -55 -23 -251 -40 -435 -103 -1166 -131
-1477 -140 -1570 -6 -58 -30 -334 -55 -615 -25 -280 -48 -531 -51 -557 l-6
-46 -71 -13 c-259 -43 -505 -193 -668 -408 -68 -90 -143 -246 -177 -366 l-27
-100 0 -1720 0 -1720 22 -81 c36 -134 80 -236 145 -335 172 -261 442 -429 755
-470 l92 -12 3 -916 4 -916 23 -85 c102 -376 396 -650 768 -715 504 -88 994
246 1097 747 14 67 16 194 16 983 l0 905 3470 0 3469 0 3 -923 c3 -847 5 -927
21 -981 109 -364 363 -612 714 -698 110 -26 301 -28 410 -4 353 78 638 350
728 692 31 119 35 237 35 1070 l0 840 93 13 c473 62 835 410 912 878 14 88 16
272 13 1773 l-3 1675 -28 100 c-33 120 -108 276 -176 366 -163 215 -409 365
-668 408 l-71 13 -6 46 c-3 26 -26 277 -51 557 -25 281 -63 708 -85 950 -105
1172 -161 1792 -170 1915 -6 74 -15 160 -21 190 -58 305 -282 568 -574 675
-161 59 151 55 -4554 54 -3473 -1 -4330 -3 -4387 -14z m8636 -850 c0 -14 54
-700 120 -1525 66 -825 120 -1502 120 -1505 0 -3 -2017 -5 -4481 -5 l-4482 0
6 63 c4 34 59 717 122 1517 64 800 118 1461 120 1468 4 9 860 12 4240 12
l4235 0 0 -25z m-8396 -4249 c333 -100 574 -348 667 -686 33 -122 34 -346 1
-470 -88 -327 -330 -583 -647 -683 -462 -145 -967 83 -1165 526 -59 134 -75
217 -74 397 0 150 3 173 28 255 109 357 388 611 751 684 28 5 118 9 200 7 128
-3 163 -7 239 -30z m8742 23 c364 -65 650 -322 760 -684 25 -82 28 -105 28
-255 1 -144 -2 -176 -23 -250 -79 -283 -262 -501 -523 -625 -349 -165 -758
-104 -1052 156 -124 110 -243 307 -288 479 -33 124 -32 349 1 470 100 364 381
631 741 705 80 16 276 19 356 4z"/>
</g>
</svg>
