<svg xmlns="http://www.w3.org/2000/svg" viewBox="0 0 1065.31 189.82"><defs><style>.cls-1{fill:#12100b;}.cls-2{fill:#f6a60c;}</style></defs><g id="Camada_2" data-name="Camada 2"><g id="Camada_1-2" data-name="Camada 1"><path class="cls-1" d="M91.28,44.23V81.59a3,3,0,0,1-3.43,3,65.86,65.86,0,0,0-10.43-.77q-14.73,0-24.12,9.54t-9.39,29.46v59.7a3,3,0,0,1-3,3H3a3,3,0,0,1-3-3V44.88a3,3,0,0,1,3-3H39.47a3,3,0,0,1,3,3v6.36a3,3,0,0,0,5.24,2,31.61,31.61,0,0,1,10.65-7.85,50.9,50.9,0,0,1,21.38-4.91A45.25,45.25,0,0,1,89,41.3,3,3,0,0,1,91.28,44.23Z"/><path class="cls-1" d="M208.61,134.49l31.16,8.83a3,3,0,0,1,2,3.81,59.83,59.83,0,0,1-21.92,29.81q-17.32,12.84-43.33,12.85-31.2,0-53-20.8t-21.81-55.75q0-33.51,21.23-54.6t50.41-21.09q33.51,0,52.72,19.5t19.21,54.17q0,7.31-.38,10.9a3,3,0,0,1-3,2.67H147.82a3,3,0,0,0-2.95,3.52,26.62,26.62,0,0,0,9.73,16.27,34.05,34.05,0,0,0,22.53,7.95q20.73,0,27.91-16.32A3,3,0,0,1,208.61,134.49Zm-59.72-38h50.56a3,3,0,0,0,3-3.54,26,26,0,0,0-7.22-13.5Q188.1,72.22,174,72.22q-12.72,0-20.22,7.51A28.07,28.07,0,0,0,146,92.82,3,3,0,0,0,148.89,96.48Z"/><path class="cls-1" d="M299.52,103.13v79.34a3,3,0,0,1-3,3H258.6a3,3,0,0,1-3-3V44.88a3,3,0,0,1,3-3h36.48a3,3,0,0,1,3,3v4.65a3,3,0,0,0,5.11,2.1A40.24,40.24,0,0,1,315,43.48a54.23,54.23,0,0,1,23.26-5.35q25.71,0,39,16t13.28,41.17v87.14a3,3,0,0,1-3,3H349.6a3,3,0,0,1-3-3V102.84q0-11.27-5.92-18.06T323.21,78Q312.52,78,306,85.07T299.52,103.13Z"/><path class="cls-1" d="M469.06,134q0,15,15.89,15a46.81,46.81,0,0,0,8-.74,3,3,0,0,1,3.53,2.94v30.82a3,3,0,0,1-1.84,2.77q-7.86,3.21-21,3.21-22.24,0-35.09-12.42t-12.86-33.8V83.3a3,3,0,0,0-3-3H403.3a3,3,0,0,1-3-3V44.88a3,3,0,0,1,3-3h19a3,3,0,0,0,3-3V3a3,3,0,0,1,3-3h37.76a3,3,0,0,1,3,3Z"/><path class="cls-1" d="M669.07,88.38a3,3,0,0,0,2-3.73c-8.76-29.11-35.53-47.81-68.24-47.1-49.6-.55-83.05,43.06-74.53,90.78a3,3,0,0,0,3.84,2.34l36.56-11.42a3,3,0,0,0,2.08-3c-1.32-21,11.46-38.35,32.91-38.24,13.67-.26,23.6,7.07,28,18.68a3,3,0,0,0,3.67,1.86Z"/><path class="cls-2" d="M793.24,176.4a3,3,0,0,0-5.31-1.67,38.57,38.57,0,0,1-10.27,8.71,45.43,45.43,0,0,1-23.55,6.06q-31.49,0-51.42-21.52t-19.93-54.74q0-32.64,19.36-54.17t50.55-21.52q17,0,26.86,6.79a50,50,0,0,1,7.87,6.59,3,3,0,0,0,5.14-2.08v-4a3,3,0,0,1,3-3H832a3,3,0,0,1,3,3V159.75q0,11.34.88,22.47a3,3,0,0,1-3,3.24H796.72a3,3,0,0,1-3-2.74C793.53,180.27,793.36,178.18,793.24,176.4ZM727,113.53q0,17.32,9.39,27.73a31.67,31.67,0,0,0,46.8.14q9.38-10.25,9.39-27.87,0-17.91-9.25-27.88t-23.4-10q-14.73,0-23.83,9.83T727,113.53Z"/><path class="cls-2" d="M937.57,44.23V81.59a3,3,0,0,1-3.43,3,66,66,0,0,0-10.44-.77q-14.73,0-24.12,9.54t-9.39,29.46v59.7a3,3,0,0,1-3,3H849.27a3,3,0,0,1-3-3V44.88a3,3,0,0,1,3-3h36.49a3,3,0,0,1,3,3v6.36a3,3,0,0,0,5.24,2,31.61,31.61,0,0,1,10.65-7.85A50.85,50.85,0,0,1,926,40.44a45.25,45.25,0,0,1,9.22.86A3,3,0,0,1,937.57,44.23Z"/><path class="cls-2" d="M950.26,144.23l31.39-5.6A3,3,0,0,1,985.1,141a20.64,20.64,0,0,0,5.83,10.85q5.64,5.64,16.32,5.64,8.09,0,12.42-3.61A11.09,11.09,0,0,0,1024,145q0-8.67-14.16-11.85l-16.47-3.75Q971.44,124.8,961,113.09a40.52,40.52,0,0,1-10.4-27.87q0-19.93,15.74-33.8t39.44-13.87q28,0,42,13.44,12.72,12.19,15.08,26.41a3,3,0,0,1-2.43,3.42l-30.62,5.59a3,3,0,0,1-3.44-2.24,19.47,19.47,0,0,0-5.46-9.93q-5.06-4.9-14.59-4.91a17.78,17.78,0,0,0-11,3.47,10.7,10.7,0,0,0-4.63,9q0,8.67,11.27,10.69l19.07,3.76q21.66,4.32,32.93,16.46a40.65,40.65,0,0,1,11.26,28.6q0,19.94-15,34.23t-42.17,14.3q-15.9,0-28.17-4.62t-18.77-12a60.26,60.26,0,0,1-9.83-14.59,44.54,44.54,0,0,1-3.52-11A3,3,0,0,1,950.26,144.23Z"/><rect class="cls-2" x="479.31" y="42.09" width="38" height="38" rx="2.99"/><path class="cls-2" d="M633.22,130.64c-9,25.12-49.35,24.28-59.36-.19a3,3,0,0,0-3.65-1.67c-15.27,4.75-28.48,8.89-35.57,11.11a3,3,0,0,0-1.88,4c11.62,28,40.38,46.47,71.51,45.91,31.68.85,59-18.93,67.66-47.1a3,3,0,0,0-2-3.74l-33.05-10.1A3,3,0,0,0,633.22,130.64Z"/></g></g></svg>