<svg width="27" height="27" viewBox="0 0 27 27" fill="none" xmlns="http://www.w3.org/2000/svg">
<path d="M13.4673 9.84718H11.4527L12.46 7.41921L13.4673 9.84718ZM14.7925 12.9962H17.072L13.796 5.57442H11.1877L7.91146 12.9962H10.138L10.753 11.5119H14.1669L14.7925 12.9962ZM24.674 12.9962H26.678V5.57442H23.5608L21.8961 10.197L20.2421 5.57442H17.072V12.9962H19.0759V7.80098L20.9843 12.9962H22.7655L24.674 7.79023V12.9962ZM12.7787 19.7774V18.6217H16.9666V16.9465H12.7787V15.7909H17.0726V14.0732H10.7536V21.495H17.0726V19.7774H12.7787ZM24.6399 17.7661L26.678 19.9342V15.6159L24.6399 17.7661ZM24.0174 21.495H26.678L23.1585 17.763L26.678 14.0732H24.0598L21.8865 16.4482L19.7339 14.0732H17.0727L20.5715 17.7841L17.0727 21.495H19.6598L21.8439 19.0988L24.0174 21.495ZM26.678 26.76V22.5578H23.4786L21.8313 20.7364L20.1757 22.5578H9.62702V14.0689H6.22233L10.4455 4.51155H14.5183L15.9722 7.78572V4.51155H21.0135L21.889 6.97886L22.77 4.51155H26.678V0.240002H0.157959V26.76H26.678Z" fill="#1977C6"/>
</svg>
