<svg width="35" height="27" viewBox="0 0 35 27" fill="none" xmlns="http://www.w3.org/2000/svg">
<path d="M4.59259 0.777802H0.888889V17.4445H4.59259V0.777802Z" fill="#4F4F4F"/>
<path d="M13.908 0.777802H10.2043V17.4445H13.908V0.777802Z" fill="#4F4F4F"/>
<path d="M19.5197 0.777802H15.8159V17.4445H19.5197V0.777802Z" fill="#4F4F4F"/>
<path d="M34.2222 0.777802H28.7228V17.4445H34.2222V0.777802Z" fill="#4F4F4F"/>
<path d="M8.29629 0.777802H6.50056V17.4445H8.29629V0.777802Z" fill="#4F4F4F"/>
<path d="M23.1111 0.777802H21.3154V17.4445H23.1111V0.777802Z" fill="#4F4F4F"/>
<path d="M26.8148 0.777802H25.0191V17.4445H26.8148V0.777802Z" fill="#4F4F4F"/>
<path d="M5.75248 23.5556V19.4321H7.16566C7.632 19.4321 7.98695 19.5256 8.2305 19.7125C8.47406 19.8994 8.59584 20.1779 8.59584 20.548C8.59584 20.7368 8.54486 20.9067 8.44291 21.0577C8.34095 21.2088 8.1918 21.3258 7.99545 21.4089C8.21823 21.4693 8.39004 21.5835 8.51088 21.7516C8.6336 21.9177 8.69496 22.1178 8.69496 22.352C8.69496 22.739 8.57035 23.0364 8.32113 23.244C8.0738 23.4517 7.71885 23.5556 7.25629 23.5556H5.75248ZM6.46898 21.6949V22.9835H7.26478C7.48946 22.9835 7.66504 22.9278 7.79154 22.8164C7.91804 22.705 7.98129 22.5502 7.98129 22.352C7.98129 21.9234 7.76227 21.7044 7.32425 21.6949H6.46898ZM6.46898 21.1682H7.17132C7.39411 21.1682 7.56781 21.1181 7.69242 21.0181C7.81892 20.9161 7.88216 20.7726 7.88216 20.5876C7.88216 20.3837 7.82364 20.2364 7.70658 20.1458C7.59141 20.0552 7.4111 20.0099 7.16566 20.0099H6.46898V21.1682ZM12.7023 21.6015C12.7023 22.0055 12.6324 22.3605 12.4927 22.6663C12.353 22.9703 12.1529 23.2044 11.8923 23.3687C11.6337 23.531 11.3354 23.6122 10.9974 23.6122C10.6632 23.6122 10.3649 23.531 10.1025 23.3687C9.84193 23.2044 9.63991 22.9712 9.49642 22.6691C9.35482 22.3671 9.28308 22.0187 9.28119 21.6241V21.3919C9.28119 20.9898 9.35199 20.6348 9.49359 20.3271C9.63708 20.0193 9.83815 19.7843 10.0968 19.6219C10.3574 19.4576 10.6557 19.3755 10.9917 19.3755C11.3278 19.3755 11.6252 19.4567 11.8838 19.619C12.1444 19.7795 12.3454 20.0118 12.487 20.3157C12.6286 20.6178 12.7004 20.9699 12.7023 21.3721V21.6015ZM11.9858 21.3862C11.9858 20.9293 11.8989 20.5791 11.7252 20.3356C11.5534 20.092 11.3089 19.9702 10.9917 19.9702C10.6821 19.9702 10.4395 20.092 10.2639 20.3356C10.0902 20.5772 10.0015 20.9199 9.99769 21.3636V21.6015C9.99769 22.0546 10.0855 22.4048 10.2611 22.6522C10.4385 22.8995 10.684 23.0232 10.9974 23.0232C11.3146 23.0232 11.5581 22.9023 11.7281 22.6607C11.8999 22.419 11.9858 22.0659 11.9858 21.6015V21.3862ZM14.1325 22.9835H16.0044V23.5556H13.416V19.4321H14.1325V22.9835ZM18.9639 21.7148H17.2703V22.9835H19.2499V23.5556H16.5538V19.4321H19.2301V20.0099H17.2703V21.1483H18.9639V21.7148ZM22.8693 20.0099H21.5835V23.5556H20.8727V20.0099H19.5983V19.4321H22.8693V20.0099ZM26.6245 21.6015C26.6245 22.0055 26.5547 22.3605 26.415 22.6663C26.2753 22.9703 26.0751 23.2044 25.8146 23.3687C25.5559 23.531 25.2576 23.6122 24.9197 23.6122C24.5855 23.6122 24.2872 23.531 24.0247 23.3687C23.7642 23.2044 23.5622 22.9712 23.4187 22.6691C23.2771 22.3671 23.2053 22.0187 23.2035 21.6241V21.3919C23.2035 20.9898 23.2743 20.6348 23.4159 20.3271C23.5593 20.0193 23.7604 19.7843 24.0191 19.6219C24.2796 19.4576 24.5779 19.3755 24.914 19.3755C25.2501 19.3755 25.5474 19.4567 25.8061 19.619C26.0666 19.7795 26.2677 20.0118 26.4093 20.3157C26.5509 20.6178 26.6227 20.9699 26.6245 21.3721V21.6015ZM25.908 21.3862C25.908 20.9293 25.8212 20.5791 25.6475 20.3356C25.4757 20.092 25.2312 19.9702 24.914 19.9702C24.6044 19.9702 24.3618 20.092 24.1862 20.3356C24.0125 20.5772 23.9237 20.9199 23.92 21.3636V21.6015C23.92 22.0546 24.0078 22.4048 24.1833 22.6522C24.3608 22.8995 24.6063 23.0232 24.9197 23.0232C25.2369 23.0232 25.4804 22.9023 25.6503 22.6607C25.8221 22.419 25.908 22.0659 25.908 21.6015V21.3862Z" fill="#4F4F4F"/>
</svg>
