<svg width="30" height="24" viewBox="0 0 30 24" fill="none" xmlns="http://www.w3.org/2000/svg">
<path d="M29.6877 12.4677C29.6877 5.5542 23.8204 0.775472 17.3921 0.777772H11.8598C5.35449 0.775472 0 5.55562 0 12.4677C0 18.7912 5.35449 23.9866 11.8598 23.9563H17.3921C23.8204 23.9866 29.6877 18.7898 29.6877 12.4677Z" fill="#0079BE"/>
<path d="M11.894 1.75717C5.94963 1.75901 1.13273 6.50738 1.13133 12.3678C1.13273 18.2272 5.94958 22.9752 11.894 22.977C17.8397 22.9752 22.6576 18.2272 22.6585 12.3678C22.6576 6.50738 17.8397 1.75901 11.894 1.75717Z" fill="white"/>
<path fill-rule="evenodd" clip-rule="evenodd" d="M9.47058 6.06293C6.9114 7.03334 5.09655 9.47536 5.09095 12.3391C5.0965 15.2033 6.9114 17.6439 9.47058 18.6138V6.06293ZM14.3536 6.06293V18.617C16.9137 17.6471 18.7313 15.2055 18.736 12.3395C18.7313 9.4744 16.9137 7.031 14.3536 6.06293Z" fill="#0079BE"/>
</svg>
