<svg width="42" height="16" viewBox="0 0 42 16" fill="none" xmlns="http://www.w3.org/2000/svg">
<path d="M6.78678 3.54727C7.24382 3.39493 7.73242 3.31308 8.24117 3.31308C10.4596 3.31308 12.3118 4.88521 12.736 6.9749L15.8807 6.33487C15.1592 2.78375 12.0135 0.111115 8.24117 0.111115C7.37676 0.111115 6.54636 0.251673 5.76949 0.510649L6.78678 3.54727Z" fill="#F2CA30"/>
<path d="M3.07572 13.7158L5.20233 11.317C4.25303 10.4779 3.6541 9.25329 3.6541 7.88894C3.6541 6.52561 4.25222 5.30161 5.2009 4.46355L3.07389 2.06451C1.46174 3.48939 0.444445 5.57095 0.444445 7.88894C0.444445 10.2084 1.46214 12.2905 3.07572 13.7158Z" fill="#4DA3DD"/>
<path d="M12.7351 8.80722C12.3092 10.8959 10.4589 12.465 8.24109 12.465C7.73213 12.465 7.24211 12.3831 6.78528 12.23L5.76677 15.2678C6.54383 15.5266 7.37587 15.6667 8.24129 15.6667C12.01 15.6667 15.1551 12.9986 15.8796 9.4505L12.7351 8.80722Z" fill="#CF4329"/>
<path d="M18.6308 11.4182C18.5277 11.2517 18.3879 10.9854 18.3034 10.7894C17.8054 9.63588 17.7816 8.44215 18.2022 7.29616C18.6645 6.03947 19.5479 5.07729 20.6892 4.58737C22.124 3.97131 23.7109 4.09278 25.0861 4.90688C25.9597 5.40695 26.5789 6.17901 27.0492 7.27077C27.1091 7.41051 27.1618 7.55981 27.2131 7.68655L18.6308 11.4182ZM21.4966 6.4392C20.4776 6.87611 19.9524 7.82975 20.0603 8.94792L24.3766 7.09446C23.6346 6.2241 22.6686 5.93567 21.4966 6.4392ZM24.9151 10.4719C24.9141 10.4727 24.9135 10.4735 24.9126 10.4744L24.8233 10.4142C24.5657 10.8312 24.1639 11.169 23.6567 11.3884C22.692 11.807 21.7979 11.6994 21.1558 11.1375L21.0967 11.2271C21.0961 11.2261 21.0959 11.2253 21.0949 11.2253L19.9998 12.8598C20.2716 13.0483 20.5635 13.2079 20.8701 13.3355C22.0798 13.8368 23.3174 13.8136 24.5366 13.2845C25.4185 12.9032 26.1105 12.3217 26.5834 11.5848L24.9151 10.4719Z" fill="black"/>
<path d="M30.213 2.18021V11.2673L31.6289 11.8399L30.8243 13.7131L29.2612 13.0637C28.9105 12.9122 28.6717 12.6802 28.4909 12.4184C28.318 12.1515 28.1888 11.7853 28.1888 11.2921V2.18021H30.213Z" fill="black"/>
<path d="M33.882 8.95256C33.8828 8.17868 34.2252 7.48483 34.7671 7.01318L33.3144 5.39697C32.3291 6.26591 31.7085 7.5356 31.7073 8.95032C31.7057 10.3654 32.3254 11.6366 33.3097 12.5077L34.7608 10.8899C34.2217 10.4164 33.8813 9.72461 33.882 8.95256Z" fill="black"/>
<path d="M36.4634 11.5317C36.1774 11.5309 35.9019 11.4837 35.645 11.3984L34.9512 13.4566C35.4253 13.6155 35.9333 13.702 36.4612 13.7028C38.7614 13.705 40.6822 12.0766 41.1272 9.9118L38.9947 9.47733C38.752 10.6507 37.7107 11.5327 36.4634 11.5317Z" fill="black"/>
<path d="M36.4695 4.207C35.9422 4.20639 35.4345 4.29191 34.9609 4.44932L35.6486 6.50935C35.9064 6.42445 36.1818 6.37753 36.4674 6.37753C37.7178 6.37874 38.76 7.26576 38.9967 8.44243L41.1295 8.0108C40.6906 5.84292 38.7716 4.20863 36.4695 4.207Z" fill="black"/>
</svg>
