<svg width="34" height="33" viewBox="0 0 34 33" fill="none" xmlns="http://www.w3.org/2000/svg">
<rect x="0.888885" y="8.00531" width="32.2222" height="24.5503" rx="2" fill="#F27A00"/>
<g clip-path="url(#clip0_2669_392)">
<path fill-rule="evenodd" clip-rule="evenodd" d="M9.54626 0.333133L24.1703 0.3423C26.466 0.3423 28.3571 2.23333 28.3492 4.5382V19.1623C28.3492 21.4658 26.4582 23.349 24.1533 23.349L9.52006 23.3398C7.21651 23.332 5.33334 21.4488 5.33334 19.1439L5.35036 4.51986C5.35036 2.21631 7.23354 0.323965 9.54626 0.333133Z" fill="#001D7E"/>
<path fill-rule="evenodd" clip-rule="evenodd" d="M25.108 10.8309H23.4396L22.7521 12.1379H23.9215L25.108 10.8309ZM26.2172 12.9551H24.592V16.4634C24.592 17.5386 23.8705 17.8477 23.3362 17.8477C22.8293 17.8477 22.2702 17.6591 22.278 16.7214V12.9551H20.6528L20.6437 16.9532C20.6437 18.5011 21.5289 19.1887 22.7495 19.1887C23.6007 19.1978 24.262 18.8272 24.6326 18.1738H24.6497V19.025H26.2146V12.9551H26.2172Z" fill="#FEEE00"/>
<path fill-rule="evenodd" clip-rule="evenodd" d="M19.3812 14.5619C19.3812 13.0572 17.7992 12.7914 16.9218 12.7914C15.6581 12.7914 14.3419 13.0585 14.1442 14.9155H15.717C15.7681 14.5632 15.9147 14.0735 16.7228 14.0735C17.1444 14.0735 17.7979 14.1075 17.7979 14.778C17.7979 15.1224 17.4797 15.2246 17.2217 15.2599L15.7602 15.4747C14.7204 15.6214 13.9464 16.2317 13.9464 17.4181C13.9464 18.674 14.909 19.1887 15.8296 19.1887C16.9467 19.1887 17.4718 18.6819 17.8333 18.3113C17.8673 18.6465 17.8935 18.7329 17.9878 19.025L19.3891 19.0158C19.3891 18.3453 19.3799 17.8555 19.3799 17.8464V14.5619H19.3812Z" fill="#FEEE00"/>
<path fill-rule="evenodd" clip-rule="evenodd" d="M12.4522 10.8309H10.827V12.9459H9.98497V14.0892H10.8192V17.7769C10.8192 18.5588 11.068 19.0918 12.4784 19.0918H12.6932C12.9512 19.0918 13.2092 19.0747 13.458 19.0656V17.8529C13.3467 17.8621 13.2262 17.8791 13.1227 17.8791C12.4601 17.8791 12.4431 17.7416 12.4431 17.3801L12.4522 14.0879H13.4671V12.9446H12.4522V10.8309Z" fill="#FEEE00"/>
<path fill-rule="evenodd" clip-rule="evenodd" d="M9.2372 10.8218H7.48236L7.4745 19.0158H9.22803L9.2372 10.8218Z" fill="#FEEE00"/>
<path fill-rule="evenodd" clip-rule="evenodd" d="M17.7992 16.8498V16.068C17.6355 16.1963 17.3605 16.2998 16.69 16.394C16.0798 16.4975 15.5808 16.652 15.5808 17.3134C15.5808 17.8634 16.0274 18.0441 16.3377 18.0441C17.0606 18.0441 17.7992 17.5884 17.7992 16.8498Z" fill="#001D7E"/>
</g>
<path d="M6.72857 27.5849C6.72857 27.4244 6.67193 27.3016 6.55865 27.2167C6.44537 27.1298 6.24146 27.0392 5.94693 26.9448C5.6524 26.8485 5.41923 26.7541 5.24742 26.6616C4.77919 26.4086 4.54507 26.0678 4.54507 25.6392C4.54507 25.4165 4.60738 25.2182 4.73199 25.0445C4.85848 24.8689 5.03879 24.7321 5.27291 24.6339C5.50891 24.5357 5.77323 24.4866 6.06587 24.4866C6.36041 24.4866 6.62284 24.5404 6.85318 24.648C7.08352 24.7538 7.26194 24.9039 7.38843 25.0983C7.51682 25.2928 7.58101 25.5137 7.58101 25.761H6.7314C6.7314 25.5722 6.67193 25.4259 6.55298 25.3221C6.43404 25.2163 6.26695 25.1635 6.05171 25.1635C5.84403 25.1635 5.68261 25.2078 5.56744 25.2966C5.45227 25.3834 5.39468 25.4986 5.39468 25.6421C5.39468 25.7761 5.46171 25.8885 5.59576 25.9791C5.73169 26.0697 5.93088 26.1547 6.19332 26.234C6.67665 26.3793 7.02876 26.5597 7.24966 26.7749C7.47056 26.9901 7.58101 27.2582 7.58101 27.5792C7.58101 27.936 7.44602 28.2164 7.17603 28.4203C6.90604 28.6223 6.5426 28.7233 6.0857 28.7233C5.76851 28.7233 5.47964 28.6657 5.2191 28.5506C4.95855 28.4335 4.75936 28.274 4.62154 28.072C4.4856 27.8699 4.41763 27.6358 4.41763 27.3696H5.27007C5.27007 27.8246 5.54195 28.0521 6.0857 28.0521C6.28772 28.0521 6.44537 28.0115 6.55865 27.9304C6.67193 27.8473 6.72857 27.7321 6.72857 27.5849ZM8.90357 25.9366C9.12069 25.6761 9.39351 25.5458 9.72203 25.5458C10.3866 25.5458 10.7236 25.9319 10.7331 26.7041V28.6667H9.9146V26.7267C9.9146 26.5512 9.87684 26.4218 9.80132 26.3388C9.7258 26.2538 9.60025 26.2113 9.42466 26.2113C9.18488 26.2113 9.01119 26.3038 8.90357 26.4889V28.6667H8.08511V24.3167H8.90357V25.9366ZM11.223 27.1062C11.223 26.8023 11.2815 26.5313 11.3986 26.2934C11.5156 26.0556 11.6837 25.8715 11.9027 25.7412C12.1236 25.6109 12.3794 25.5458 12.6702 25.5458C13.0836 25.5458 13.4207 25.6723 13.6812 25.9253C13.9436 26.1783 14.09 26.5219 14.1202 26.9561L14.1258 27.1657C14.1258 27.6358 13.9946 28.0134 13.7322 28.2985C13.4697 28.5817 13.1176 28.7233 12.6758 28.7233C12.234 28.7233 11.881 28.5817 11.6167 28.2985C11.3542 28.0153 11.223 27.6302 11.223 27.1431V27.1062ZM12.0415 27.1657C12.0415 27.4565 12.0962 27.6793 12.2057 27.8341C12.3152 27.987 12.4719 28.0635 12.6758 28.0635C12.8741 28.0635 13.0289 27.9879 13.1403 27.8369C13.2517 27.684 13.3074 27.4404 13.3074 27.1062C13.3074 26.8211 13.2517 26.6002 13.1403 26.4435C13.0289 26.2868 12.8722 26.2085 12.6702 26.2085C12.47 26.2085 12.3152 26.2868 12.2057 26.4435C12.0962 26.5984 12.0415 26.8391 12.0415 27.1657ZM17.3883 27.1629C17.3883 27.6349 17.2807 28.0134 17.0655 28.2985C16.8521 28.5817 16.5633 28.7233 16.1989 28.7233C15.8892 28.7233 15.6391 28.6157 15.4484 28.4005V29.8448H14.6299V25.6024H15.3889L15.4172 25.9026C15.6155 25.6647 15.8741 25.5458 16.1932 25.5458C16.5708 25.5458 16.8644 25.6855 17.074 25.9649C17.2836 26.2444 17.3883 26.6295 17.3883 27.1204V27.1629ZM16.5699 27.1034C16.5699 26.8183 16.5189 26.5984 16.4169 26.4435C16.3169 26.2887 16.1706 26.2113 15.978 26.2113C15.7212 26.2113 15.5447 26.3095 15.4484 26.5058V27.7604C15.5485 27.9625 15.7269 28.0635 15.9836 28.0635C16.3745 28.0635 16.5699 27.7434 16.5699 27.1034ZM18.7619 28.6667H17.9406V24.3167H18.7619V28.6667ZM20.3025 28.6667H19.4812V25.6024H20.3025V28.6667ZM19.4331 24.8095C19.4331 24.6867 19.4737 24.5857 19.5548 24.5064C19.6379 24.4271 19.7502 24.3875 19.8919 24.3875C20.0316 24.3875 20.143 24.4271 20.226 24.5064C20.3091 24.5857 20.3506 24.6867 20.3506 24.8095C20.3506 24.9341 20.3082 25.036 20.2232 25.1153C20.1401 25.1946 20.0297 25.2343 19.8919 25.2343C19.754 25.2343 19.6426 25.1946 19.5577 25.1153C19.4746 25.036 19.4331 24.9341 19.4331 24.8095ZM21.7327 25.6024L21.7582 25.9564C21.9772 25.6827 22.2708 25.5458 22.6389 25.5458C22.9637 25.5458 23.2053 25.6411 23.3639 25.8318C23.5225 26.0225 23.6037 26.3076 23.6075 26.6871V28.6667H22.789V26.7069C22.789 26.5332 22.7513 26.4077 22.6757 26.3303C22.6002 26.251 22.4747 26.2113 22.2991 26.2113C22.0687 26.2113 21.896 26.3095 21.7808 26.5058V28.6667H20.9624V25.6024H21.7327ZM25.6409 28.7233C25.1915 28.7233 24.8253 28.5855 24.542 28.3099C24.2607 28.0342 24.1201 27.667 24.1201 27.2082V27.1289C24.1201 26.8211 24.1795 26.5464 24.2985 26.3048C24.4174 26.0612 24.5855 25.8743 24.8026 25.744C25.0216 25.6119 25.2708 25.5458 25.5503 25.5458C25.9694 25.5458 26.2989 25.6779 26.5386 25.9423C26.7803 26.2066 26.9011 26.5814 26.9011 27.0666V27.4008H24.9499C24.9763 27.6009 25.0556 27.7614 25.1878 27.8822C25.3218 28.003 25.4908 28.0635 25.6947 28.0635C26.01 28.0635 26.2564 27.9492 26.4338 27.7208L26.836 28.1711C26.7133 28.3448 26.5471 28.4807 26.3376 28.5789C26.128 28.6752 25.8958 28.7233 25.6409 28.7233ZM25.5474 26.2085C25.385 26.2085 25.2529 26.2632 25.1509 26.3727C25.0509 26.4822 24.9867 26.639 24.9584 26.8429H26.0968V26.7777C26.0931 26.5965 26.044 26.4568 25.9496 26.3586C25.8552 26.2585 25.7211 26.2085 25.5474 26.2085Z" fill="white"/>
<defs>
<clipPath id="clip0_2669_392">
<rect width="23.0159" height="23.0159" fill="white" transform="translate(5.33334 0.333344)"/>
</clipPath>
</defs>
</svg>
