<svg width="47" height="17" viewBox="0 0 47 17" fill="none" xmlns="http://www.w3.org/2000/svg">
<path fill-rule="evenodd" clip-rule="evenodd" d="M22.2511 2.93582C21.4576 2.93584 20.6966 3.25108 20.1355 3.81218C19.5744 4.3733 19.2591 5.13435 19.2591 5.92789V15.3667C19.2591 15.4507 19.191 15.5188 19.107 15.5188C19.023 15.5188 18.955 15.4507 18.955 15.3667V5.92789C18.955 5.05368 19.3022 4.21526 19.9204 3.5971C20.5386 2.97893 21.377 2.63165 22.2512 2.63165H22.2514L25.0381 2.63554C25.9101 2.63729 26.7457 2.98496 27.3617 3.60222C27.9776 4.21948 28.3234 5.0559 28.3233 5.92789C28.3233 5.9279 28.3233 5.92789 28.3233 5.92789V7.93654C28.3233 8.8108 27.976 9.64926 27.3579 10.2675C26.7397 10.8857 25.9013 11.2331 25.0271 11.2333H21.0885C21.0045 11.2333 20.9364 11.1652 20.9364 11.0812C20.9364 10.9972 21.0045 10.9291 21.0885 10.9291H25.027C25.027 10.9291 25.027 10.9291 25.027 10.9291C25.8206 10.929 26.5817 10.6136 27.1428 10.0524C27.7039 9.49124 28.0191 8.73014 28.0191 7.93654V5.92789C28.0193 5.13647 27.7054 4.3773 27.1463 3.81707C26.5873 3.25686 25.8289 2.94132 25.0375 2.9397M25.0374 2.9397L22.2512 2.93582C22.2512 2.93582 22.2511 2.93582 22.2511 2.93582" fill="#575756"/>
<path fill-rule="evenodd" clip-rule="evenodd" d="M28.798 2.78325C28.798 2.69925 28.8661 2.63116 28.9501 2.63116H30.159C30.5416 2.63116 30.9085 2.78315 31.179 3.05369C31.4496 3.32423 31.6016 3.69116 31.6016 4.07376V11.1239C31.6016 11.2079 31.5335 11.276 31.4495 11.276C31.3655 11.276 31.2974 11.2079 31.2974 11.1239V4.07376C31.2974 3.77183 31.1775 3.48226 30.964 3.26877C30.7505 3.05527 30.4609 2.93533 30.159 2.93533H28.9501C28.8661 2.93533 28.798 2.86724 28.798 2.78325Z" fill="#575756"/>
<path d="M31.19 1.69095L30.6419 1.14239C30.6096 1.11008 30.584 1.07172 30.5665 1.02949C30.549 0.987264 30.5399 0.942001 30.5399 0.896291C30.5399 0.85058 30.549 0.805318 30.5665 0.76309C30.584 0.720863 30.6096 0.682499 30.6419 0.65019L31.19 0.102112C31.2554 0.0367476 31.3441 3.05176e-05 31.4366 3.05176e-05C31.5291 3.05176e-05 31.6178 0.0367476 31.6832 0.102112L32.2308 0.65019C32.2631 0.682499 32.2888 0.720863 32.3063 0.76309C32.3238 0.805318 32.3328 0.85058 32.3328 0.896291C32.3328 0.942001 32.3238 0.987264 32.3063 1.02949C32.2888 1.07172 32.2631 1.11008 32.2308 1.14239L31.6808 1.69095C31.6484 1.72331 31.61 1.74897 31.5677 1.76648C31.5255 1.78398 31.4802 1.79299 31.4344 1.79299C31.3887 1.79299 31.3434 1.78398 31.3011 1.76648C31.2588 1.74897 31.2204 1.72331 31.1881 1.69095" fill="#32BCAD"/>
<path fill-rule="evenodd" clip-rule="evenodd" d="M40.0747 7.45779C39.8683 7.45779 39.6705 7.5397 39.5245 7.68553L36.7205 10.4895L36.7205 10.4896C36.2557 10.9538 35.6256 11.2145 34.9687 11.2143C34.9687 11.2143 34.9687 11.2143 34.9687 11.2143H33.7701C33.6861 11.2143 33.618 11.1462 33.618 11.0622C33.618 10.9782 33.6861 10.9101 33.7701 10.9101H34.9688C35.545 10.9103 36.0977 10.6817 36.5054 10.2744C36.5055 10.2744 36.5055 10.2744 36.5055 10.2744L39.3095 7.4704L39.3095 7.47035C39.5125 7.26755 39.7877 7.15363 40.0747 7.15363C40.3616 7.15363 40.6368 7.26755 40.8398 7.47035L40.8398 7.4704L43.6336 10.2642C44.0412 10.6714 44.5937 10.9001 45.1698 10.8999H46.1446C46.2286 10.8999 46.2967 10.968 46.2967 11.052C46.2967 11.136 46.2286 11.2041 46.1446 11.2041H45.1699C45.1699 11.2041 45.1699 11.2041 45.1699 11.2041C44.5132 11.2043 43.8832 10.9436 43.4186 10.4794L43.4186 10.4793L40.6248 7.68553C40.4789 7.5397 40.281 7.45779 40.0747 7.45779Z" fill="#575756"/>
<path fill-rule="evenodd" clip-rule="evenodd" d="M40.0406 6.42893C40.247 6.42893 40.4448 6.34702 40.5908 6.20119L43.3948 3.3972L43.3948 3.39714C43.8596 2.9329 44.4897 2.67222 45.1466 2.67242C45.1466 2.67242 45.1466 2.67242 45.1466 2.67242L46.3452 2.67242C46.4292 2.67242 46.4973 2.74051 46.4973 2.8245C46.4973 2.90849 46.4292 2.97658 46.3452 2.97658L45.1465 2.97658C44.5703 2.97639 44.0175 3.20505 43.6099 3.61228C43.6098 3.6123 43.6098 3.61232 43.6098 3.61233L40.8058 6.41632L40.8058 6.41637C40.6028 6.61917 40.3276 6.73309 40.0406 6.73309C39.7537 6.73309 39.4785 6.61917 39.2755 6.41637L39.2755 6.41632L36.4817 3.62252C36.0741 3.21529 35.5216 2.98662 34.9455 2.98679L33.9707 2.98679C33.8867 2.98679 33.8186 2.9187 33.8186 2.8347C33.8186 2.75071 33.8867 2.68262 33.9707 2.68262L34.9454 2.68262C34.9454 2.68262 34.9454 2.68262 34.9454 2.68262C35.6021 2.68244 36.2321 2.94314 36.6967 3.40737L36.6967 3.4074L39.4905 6.20119C39.6364 6.34702 39.8343 6.42893 40.0406 6.42893Z" fill="#575756"/>
<path d="M11.9602 12.8532C11.6644 12.8542 11.3714 12.7967 11.098 12.6839C10.8246 12.571 10.5763 12.4051 10.3674 12.1958L8.06677 9.89364C7.9854 9.81583 7.87714 9.7724 7.76455 9.7724C7.65196 9.7724 7.54371 9.81583 7.46233 9.89364L5.15389 12.2021C4.94513 12.4117 4.69689 12.578 4.42351 12.6911C4.15013 12.8043 3.85704 12.8622 3.56116 12.8614H3.11075L6.02606 15.7767C6.46329 16.213 7.05576 16.4581 7.67345 16.4581C8.29114 16.4581 8.8836 16.213 9.32084 15.7767L12.242 12.8551L11.9602 12.8532Z" fill="#32BCAD"/>
<path d="M3.56165 4.71753C3.85753 4.71674 4.15063 4.7746 4.42401 4.88778C4.69739 5.00095 4.94563 5.16718 5.15438 5.37688L7.46282 7.6858C7.54306 7.76579 7.65173 7.81071 7.76504 7.81071C7.87834 7.81071 7.98702 7.76579 8.06726 7.6858L10.3674 5.38562C10.576 5.17567 10.8242 5.00923 11.0976 4.89596C11.371 4.78269 11.6642 4.72485 11.9602 4.72579H12.2371L9.31598 1.80465C9.09967 1.58826 8.84285 1.41661 8.56018 1.29949C8.27752 1.18238 7.97455 1.1221 7.66859 1.1221C7.36262 1.1221 7.05966 1.18238 6.77699 1.29949C6.49433 1.41661 6.23751 1.58826 6.0212 1.80465L3.11075 4.71753H3.56165Z" fill="#32BCAD"/>
<path d="M14.6534 7.14259L12.8882 5.37737C12.8484 5.39364 12.8059 5.40222 12.7629 5.40264H11.9602C11.5425 5.40368 11.1421 5.56957 10.846 5.86423L8.54586 8.16295C8.33871 8.36972 8.05797 8.48586 7.76528 8.48586C7.47259 8.48586 7.19186 8.36972 6.98471 8.16295L4.67579 5.85548C4.37982 5.56064 3.97942 5.39458 3.56165 5.39341H2.57628C2.53567 5.39249 2.49554 5.38443 2.45772 5.3696L0.68133 7.14259C0.245022 7.57983 -1.52588e-05 8.17229 -1.52588e-05 8.78998C-1.52588e-05 9.40767 0.245022 10.0001 0.68133 10.4374L2.45384 12.2099C2.49157 12.1948 2.53175 12.1867 2.57239 12.1861H3.56165C3.97941 12.1848 4.37979 12.0188 4.67579 11.724L6.98422 9.41556C7.4016 8.99867 8.12897 8.99867 8.54586 9.41556L10.846 11.7153C11.1421 12.0099 11.5425 12.1758 11.9602 12.1768H12.7629C12.8059 12.1771 12.8484 12.1857 12.8882 12.2021L14.6534 10.4369C14.8698 10.2206 15.0415 9.96376 15.1586 9.68109C15.2757 9.39843 15.336 9.09546 15.336 8.7895C15.336 8.48353 15.2757 8.18056 15.1586 7.8979C15.0415 7.61524 14.8698 7.35842 14.6534 7.14211" fill="#32BCAD"/>
<path d="M21.5034 14.5645C21.3575 14.5709 21.2127 14.5929 21.0715 14.6301V15.2054C21.1795 15.2432 21.2932 15.2623 21.4077 15.2617C21.6963 15.2617 21.8329 15.1645 21.8329 14.9104C21.8329 14.6714 21.7211 14.5645 21.5034 14.5645ZM20.9743 15.6334V14.495H21.0535L21.0618 14.5436C21.2089 14.5045 21.3597 14.4802 21.5117 14.4712C21.617 14.4638 21.7216 14.4941 21.8066 14.5567C21.9038 14.6374 21.9368 14.7676 21.9368 14.9095C21.9368 15.0513 21.8883 15.1981 21.7522 15.2753C21.6484 15.3271 21.5334 15.3527 21.4174 15.3497C21.3002 15.3489 21.1836 15.3311 21.0715 15.2967V15.6315L20.9743 15.6334Z" fill="#575756"/>
<path d="M22.6608 14.5611C22.3727 14.5611 22.2439 14.6514 22.2439 14.9055C22.2439 15.1509 22.3707 15.2617 22.6608 15.2617C22.9509 15.2617 23.0762 15.1723 23.0762 14.9187C23.0762 14.6733 22.9494 14.5611 22.6608 14.5611ZM23.032 15.2617C22.9348 15.3307 22.8075 15.3506 22.6608 15.3506C22.5141 15.3506 22.3824 15.3292 22.2886 15.2617C22.1832 15.1874 22.1399 15.0673 22.1399 14.9123C22.1399 14.7574 22.1832 14.6369 22.2886 14.5611C22.3824 14.4935 22.5112 14.4721 22.6608 14.4721C22.8105 14.4721 22.9363 14.4935 23.032 14.5611C23.1389 14.6369 23.1802 14.7603 23.1802 14.9104C23.1802 15.0605 23.1375 15.1874 23.032 15.2617Z" fill="#575756"/>
<path d="M24.3974 15.3273L24.0757 14.6368H24.0694L23.7526 15.3273H23.6637L23.3235 14.495H23.4304L23.7157 15.1937H23.7225L24.0325 14.495H24.1214L24.4391 15.1937H24.4459L24.7244 14.495H24.8298L24.4868 15.3273H24.3974Z" fill="#575756"/>
<path d="M25.4493 14.5591C25.1821 14.5591 25.0917 14.6782 25.0752 14.8507H25.8234C25.8152 14.6612 25.718 14.5591 25.4493 14.5591ZM25.4459 15.3506C25.286 15.3506 25.1821 15.3273 25.0995 15.2583C25.0023 15.1743 24.9697 15.0523 24.9697 14.9124C24.9697 14.7724 25.0139 14.6369 25.1247 14.5562C25.2216 14.4953 25.335 14.4659 25.4493 14.4722C25.5658 14.4651 25.6818 14.4932 25.7821 14.5528C25.9021 14.6335 25.9255 14.7754 25.9255 14.9367H25.0727C25.0761 15.1082 25.132 15.2598 25.4551 15.2598C25.5996 15.256 25.7435 15.2397 25.8851 15.2112V15.2986C25.7411 15.3283 25.5948 15.3453 25.4478 15.3497" fill="#575756"/>
<path d="M26.2048 15.3273V14.495H26.2836L26.2918 14.5436C26.4682 14.4989 26.5508 14.4712 26.7058 14.4712H26.7175V14.5635H26.6941C26.5639 14.5635 26.4847 14.5815 26.302 14.6291V15.3263L26.2048 15.3273Z" fill="#575756"/>
<path d="M27.2821 14.5591C27.0153 14.5591 26.9244 14.6782 26.9079 14.8507H27.6562C27.6479 14.6612 27.5508 14.5591 27.2821 14.5591ZM27.2787 15.3506C27.1188 15.3506 27.0153 15.3273 26.9327 15.2583C26.8355 15.1743 26.8025 15.0523 26.8025 14.9124C26.8025 14.7724 26.8472 14.6369 26.9575 14.5562C27.0544 14.4954 27.1678 14.466 27.2821 14.4722C27.3986 14.4651 27.5145 14.4932 27.6149 14.5528C27.7354 14.6335 27.7607 14.7754 27.7607 14.9367H26.9045C26.9079 15.1082 26.9638 15.2598 27.2869 15.2598C27.4315 15.256 27.5756 15.2397 27.7174 15.2112V15.2986C27.5734 15.3282 27.4271 15.3453 27.2801 15.3497" fill="#575756"/>
<path d="M28.8237 14.6169C28.7157 14.5792 28.602 14.5603 28.4875 14.5611C28.1989 14.5611 28.0624 14.6582 28.0624 14.9123C28.0624 15.1529 28.1746 15.2583 28.3918 15.2583C28.5376 15.2515 28.6823 15.2299 28.8237 15.1937V14.6169ZM28.8422 15.3273L28.8335 15.2787C28.6864 15.3182 28.5356 15.3427 28.3835 15.3516C28.2781 15.3595 28.1733 15.329 28.0886 15.2656C27.9914 15.1849 27.9584 15.0547 27.9584 14.9133C27.9584 14.7646 28.007 14.6247 28.143 14.5489C28.247 14.4959 28.3626 14.4698 28.4793 14.4731C28.596 14.4747 28.7119 14.4924 28.8237 14.5256V14.1442H28.9209V15.3273H28.8422Z" fill="#575756"/>
<path d="M30.347 14.5645C30.2011 14.5708 30.0563 14.5928 29.915 14.63V15.2039C30.0228 15.2428 30.1367 15.2624 30.2513 15.2617C30.5399 15.2617 30.6764 15.1645 30.6764 14.9104C30.6764 14.6713 30.5647 14.5645 30.347 14.5645ZM30.5958 15.2763C30.4921 15.328 30.3773 15.3536 30.2615 15.3506C30.1347 15.3498 30.0089 15.3287 29.8888 15.2879L29.8839 15.3273H29.8179V14.1442H29.915V14.5411C30.0593 14.5042 30.2067 14.4811 30.3552 14.4721C30.4606 14.4648 30.5651 14.4951 30.6502 14.5577C30.7474 14.6383 30.7804 14.7685 30.7804 14.9104C30.7804 15.0523 30.7318 15.199 30.5958 15.2763Z" fill="#575756"/>
<path d="M30.9097 15.6456V15.5552C30.9582 15.56 31.002 15.5634 31.0331 15.5634C31.1536 15.5634 31.2274 15.5285 31.2935 15.3919L31.3251 15.3259L30.8878 14.4935H31.0005L31.3732 15.2122H31.3795L31.7337 14.4935H31.8445L31.3761 15.4284C31.2906 15.5979 31.1983 15.6538 31.0282 15.6538C30.9881 15.6536 30.948 15.6509 30.9082 15.6456" fill="#575756"/>
<path d="M33.187 14.8526H32.8644V15.1441H33.187C33.4095 15.1441 33.4936 15.1193 33.4936 14.9983C33.4936 14.8681 33.378 14.8526 33.1851 14.8526H33.187ZM33.1268 14.3822H32.8634V14.6786H33.1287C33.3478 14.6786 33.4353 14.6524 33.4353 14.529C33.4353 14.3968 33.3245 14.3832 33.1268 14.3832V14.3822ZM33.6282 15.252C33.5091 15.3278 33.3658 15.3307 33.1039 15.3307H32.6107V14.1986H33.0923C33.3182 14.1986 33.4567 14.2015 33.5718 14.271C33.6101 14.2938 33.6412 14.3269 33.6616 14.3665C33.6821 14.406 33.691 14.4506 33.6875 14.495C33.6875 14.6135 33.6389 14.6927 33.5091 14.7457V14.752C33.6549 14.785 33.7482 14.8594 33.7482 15.0192C33.7518 15.0649 33.7425 15.1106 33.7213 15.1512C33.7 15.1918 33.6678 15.2255 33.6282 15.2486" fill="#575756"/>
<path d="M34.7341 14.978C34.6369 14.9697 34.5397 14.9649 34.4343 14.9649C34.2647 14.9649 34.2049 14.9994 34.2049 15.0771C34.2049 15.1548 34.2535 15.1889 34.3847 15.1889C34.5025 15.185 34.6196 15.1687 34.7341 15.1403V14.978ZM34.7826 15.3273L34.7763 15.2787C34.629 15.3203 34.4774 15.3447 34.3244 15.3516C34.2361 15.3576 34.1481 15.3362 34.0723 15.2904C34.0397 15.2631 34.0144 15.2281 33.9987 15.1886C33.9829 15.1491 33.9772 15.1063 33.982 15.0641C33.9868 15.0218 34.002 14.9814 34.0263 14.9465C34.0505 14.9115 34.083 14.8831 34.1209 14.8638C34.2083 14.8225 34.3254 14.8191 34.4328 14.8191C34.5198 14.8191 34.6369 14.824 34.7341 14.8308V14.8157C34.7341 14.6855 34.6485 14.6427 34.4143 14.6427C34.324 14.6427 34.2132 14.6476 34.1077 14.6573V14.4892C34.2248 14.4795 34.357 14.4731 34.4658 14.4731C34.6116 14.4731 34.7608 14.4843 34.8546 14.5504C34.9483 14.6165 34.9682 14.7122 34.9682 14.8356V15.3283L34.7826 15.3273Z" fill="#575756"/>
<path d="M36.0537 15.3273V14.8681C36.0537 14.7165 35.9765 14.6621 35.838 14.6621C35.7231 14.6672 35.609 14.6848 35.4979 14.7146V15.3277H35.2656V14.4949H35.4551L35.4634 14.5479C35.6082 14.5053 35.7576 14.4798 35.9084 14.4721C36.0109 14.4639 36.1126 14.4944 36.1937 14.5576C36.2593 14.6169 36.284 14.6995 36.284 14.8181V15.3273H36.0537Z" fill="#575756"/>
<path d="M36.9409 15.3506C36.8336 15.3506 36.7165 15.3356 36.6309 15.2632C36.5289 15.1806 36.4993 15.0508 36.4993 14.9104C36.4993 14.7787 36.542 14.6349 36.6688 14.5543C36.7728 14.4867 36.9011 14.4721 37.0347 14.4721C37.1319 14.4721 37.2242 14.4785 37.3262 14.4882V14.6665C37.2422 14.6582 37.1416 14.6519 37.0609 14.6519C36.8399 14.6519 36.7359 14.7209 36.7359 14.9123C36.7359 15.0916 36.8136 15.1694 36.9949 15.1694C37.1124 15.1655 37.2293 15.1512 37.3442 15.1266V15.2977C37.2112 15.3286 37.0755 15.3464 36.939 15.3506" fill="#575756"/>
<path d="M38.0327 14.6466C37.8116 14.6466 37.7145 14.7161 37.7145 14.9055C37.7145 15.095 37.8116 15.1757 38.0327 15.1757C38.2538 15.1757 38.3476 15.1082 38.3476 14.9187C38.3476 14.7292 38.2538 14.6466 38.0327 14.6466ZM38.4316 15.2632C38.3296 15.3322 38.196 15.3506 38.0327 15.3506C37.8695 15.3506 37.7329 15.3307 37.6324 15.2632C37.5167 15.1874 37.4754 15.062 37.4754 14.9123C37.4754 14.7627 37.5167 14.6349 37.6324 14.5591C37.7329 14.4916 37.8661 14.4721 38.0327 14.4721C38.1994 14.4721 38.3296 14.4916 38.4316 14.5591C38.5468 14.6349 38.5866 14.7622 38.5866 14.9104C38.5866 15.0586 38.5453 15.1874 38.4316 15.2632Z" fill="#575756"/>
<path d="M39.9282 15.3506C39.7882 15.3506 39.6366 15.3273 39.5229 15.2335C39.3879 15.1213 39.3466 14.9483 39.3466 14.7622C39.3466 14.5956 39.3995 14.3978 39.5754 14.2826C39.7124 14.1937 39.882 14.1753 40.0535 14.1753C40.1789 14.1753 40.3077 14.1835 40.4476 14.1952V14.3978C40.3276 14.3881 40.1789 14.3798 40.0637 14.3798C39.7421 14.3798 39.6055 14.5018 39.6055 14.7622C39.6055 15.0226 39.7324 15.1461 39.9695 15.1461C40.1389 15.1402 40.3074 15.1176 40.4724 15.0785V15.2797C40.2937 15.321 40.1114 15.3447 39.9282 15.3506Z" fill="#575756"/>
<path d="M41.1555 14.6203C40.9612 14.6203 40.8883 14.6898 40.8732 14.8146H41.4339C41.4271 14.6796 41.3479 14.6203 41.1555 14.6203ZM41.1205 15.3491C40.984 15.3491 40.8601 15.3326 40.7678 15.2568C40.6755 15.181 40.6342 15.0508 40.6342 14.9089C40.6342 14.7821 40.6755 14.6402 40.7911 14.5576C40.8931 14.4852 41.0233 14.4706 41.1555 14.4706C41.2741 14.4706 41.414 14.4838 41.516 14.5547C41.6497 14.6485 41.6618 14.7938 41.6618 14.9648H40.8718C40.8766 15.0921 40.9441 15.1742 41.1783 15.1742C41.3271 15.171 41.4753 15.1567 41.622 15.1314V15.2947C41.4565 15.3261 41.2888 15.3443 41.1205 15.3491Z" fill="#575756"/>
<path d="M42.6967 15.3273V14.8681C42.6967 14.7165 42.6195 14.6621 42.481 14.6621C42.366 14.6672 42.252 14.6848 42.1409 14.7146V15.3277H41.9086V14.4949H42.0981L42.1064 14.5479C42.2512 14.5053 42.4006 14.4798 42.5514 14.4721C42.6539 14.4639 42.7556 14.4944 42.8367 14.5576C42.9022 14.6169 42.927 14.6995 42.927 14.8181V15.3273H42.6967Z" fill="#575756"/>
<path d="M43.5893 15.3507C43.4771 15.3507 43.375 15.3191 43.3192 15.2316C43.2734 15.156 43.252 15.0681 43.2579 14.9799V14.668H43.0898V14.495H43.2579L43.2827 14.2429H43.4878V14.495H43.8157V14.668H43.4878V14.9352C43.4847 14.989 43.4924 15.0429 43.5106 15.0936C43.5354 15.1495 43.5898 15.1709 43.6627 15.1709C43.7184 15.1699 43.774 15.1644 43.8288 15.1544V15.321C43.7497 15.3382 43.6692 15.3481 43.5883 15.3507" fill="#575756"/>
<path d="M44.0436 15.3274V14.495H44.2331L44.2414 14.548C44.3743 14.5029 44.5131 14.4773 44.6534 14.4722C44.6633 14.4716 44.6732 14.4716 44.683 14.4722V14.6738C44.6568 14.6738 44.6252 14.6738 44.6024 14.6738C44.4922 14.6743 44.3825 14.6887 44.2759 14.7166V15.3312L44.0436 15.3274Z" fill="#575756"/>
<path d="M45.5285 14.978C45.4313 14.9697 45.3341 14.9649 45.2282 14.9649C45.0586 14.9649 44.9993 14.9994 44.9993 15.0771C44.9993 15.1548 45.0479 15.1889 45.1786 15.1889C45.2966 15.185 45.4139 15.1687 45.5285 15.1403V14.978ZM45.5771 15.3273L45.5703 15.2787C45.4229 15.3203 45.2713 15.3447 45.1184 15.3516C45.03 15.3576 44.942 15.3362 44.8662 15.2904C44.8356 15.2669 44.8112 15.2363 44.7951 15.2013C44.779 15.1662 44.7717 15.1278 44.7739 15.0892C44.7716 15.0419 44.7839 14.9949 44.809 14.9546C44.834 14.9144 44.8708 14.8827 44.9143 14.8638C45.0018 14.8225 45.1184 14.8191 45.2258 14.8191C45.3132 14.8191 45.4303 14.824 45.5275 14.8308V14.8157C45.5275 14.6855 45.4415 14.6427 45.2078 14.6427C45.1169 14.6427 45.0066 14.6476 44.9012 14.6573V14.4892C45.0183 14.4795 45.15 14.4731 45.2588 14.4731C45.4046 14.4731 45.5537 14.4843 45.6475 14.5504C45.7413 14.6165 45.7612 14.7122 45.7612 14.8356V15.3283L45.5771 15.3273Z" fill="#575756"/>
<path d="M46.0591 14.1442H46.2918V15.3273H46.0591V14.1442Z" fill="#575756"/>
</svg>
