<svg width="20" height="20" viewBox="0 0 20 20" fill="none" xmlns="http://www.w3.org/2000/svg">
<g clip-path="url(#clip0_146_2117)">
<path d="M17.0854 2.90642C15.2053 1.03328 12.7053 0.00114285 10.0417 0C4.55298 0 0.0862851 4.44564 0.0840877 9.90996C0.0834482 11.6567 0.541851 13.3617 1.41315 14.8646L0.000488281 20.0001L5.27912 18.622C6.73349 19.4117 8.37101 19.8278 10.0374 19.8285H10.0416H10.0417C15.5295 19.8285 19.9969 15.3821 19.9992 9.91799C20.0001 7.26972 18.9652 4.77969 17.0854 2.90642ZM10.0417 18.1546H10.0385C8.55311 18.1539 7.09653 17.7568 5.82605 17.0063L5.52369 16.8278L2.39124 17.6455L3.22756 14.6059L3.03057 14.2943C2.20203 12.9827 1.76464 11.467 1.76526 9.9106C1.76708 5.36883 5.47963 1.67389 10.0448 1.67389C12.2555 1.67481 14.3333 2.53273 15.896 4.08962C17.4586 5.64651 18.3185 7.71617 18.3179 9.91729C18.3159 14.4592 14.6033 18.1546 10.0417 18.1546Z" fill="#E0E0E0"/>
<path d="M0.457764 19.4302L1.8059 14.5293C0.974184 13.095 0.536804 11.4678 0.537329 9.80119C0.53951 4.58659 4.80221 0.344147 10.0397 0.344147C12.5818 0.34529 14.9676 1.33023 16.7614 3.11785C18.5557 4.90546 19.5432 7.28158 19.5421 9.80859C19.5399 15.0233 15.277 19.2661 10.0401 19.2661C10.0397 19.2661 10.0404 19.2661 10.0401 19.2661H10.0359C8.44561 19.2656 6.88301 18.8682 5.49518 18.1151L0.457764 19.4302V19.4302Z" fill="url(#paint0_linear_146_2117)"/>
<path fill-rule="evenodd" clip-rule="evenodd" d="M7.58102 5.7027C7.3968 5.29491 7.20284 5.28675 7.02758 5.27962C6.88422 5.27349 6.72011 5.27387 6.55626 5.27387C6.39228 5.27387 6.1258 5.33522 5.90046 5.58025C5.67498 5.82527 5.03955 6.41761 5.03955 7.62231C5.03955 8.82715 5.92096 9.99129 6.04381 10.1548C6.1668 10.3181 7.74527 12.8693 10.2451 13.8508C12.3227 14.6665 12.7455 14.5042 13.1964 14.4634C13.6474 14.4226 14.6515 13.8712 14.8565 13.2994C15.0615 12.7277 15.0615 12.2377 15 12.1353C14.9385 12.0332 14.7745 11.972 14.5285 11.8495C14.2825 11.7271 13.0734 11.1346 12.8479 11.053C12.6225 10.9714 12.4585 10.9305 12.2945 11.1757C12.1305 11.4206 11.6594 11.972 11.516 12.1353C11.3725 12.2989 11.229 12.3193 10.983 12.1968C10.737 12.074 9.94493 11.8157 9.00524 10.9816C8.27411 10.3326 7.78049 9.53105 7.637 9.28592C7.49352 9.04102 7.62162 8.90837 7.745 8.7863C7.85543 8.6766 7.99098 8.50046 8.11396 8.35747C8.23669 8.21448 8.27768 8.11244 8.35968 7.94918C8.44167 7.78566 8.40067 7.64269 8.33918 7.52024C8.27768 7.39779 7.79971 6.18687 7.58102 5.7027Z" fill="white"/>
<path d="M17.0035 2.87492C15.145 1.02328 12.6737 0.00302074 10.0407 0.00186157C4.61498 0.00186157 0.199559 4.39645 0.197378 9.79803C0.196738 11.5247 0.649878 13.2101 1.51117 14.6958L0.114746 19.7723L5.33279 18.41C6.77048 19.1906 8.38919 19.602 10.0365 19.6026H10.0406H10.0407C15.4655 19.6026 19.8816 15.2073 19.8839 9.80593C19.8848 7.18812 18.8618 4.72668 17.0035 2.87492V2.87492ZM10.0407 17.9481H10.0375C8.56919 17.9473 7.12932 17.5548 5.87343 16.8129L5.57454 16.6365L2.47805 17.4447L3.30476 14.4401L3.11003 14.132C2.291 12.8355 1.85863 11.3372 1.85927 9.79868C1.86105 5.30907 5.53098 1.65657 10.0438 1.65657C12.2291 1.65746 14.283 2.50553 15.8278 4.04455C17.3725 5.58357 18.2225 7.62945 18.2219 9.80532C18.2199 14.295 14.5499 17.9481 10.0407 17.9481Z" fill="white"/>
</g>
<defs>
<linearGradient id="paint0_linear_146_2117" x1="9.99995" y1="19.4302" x2="9.99995" y2="0.344179" gradientUnits="userSpaceOnUse">
<stop stop-color="#20B038"/>
<stop offset="1" stop-color="#60D66A"/>
</linearGradient>
<clipPath id="clip0_146_2117">
<rect width="20" height="20" fill="white"/>
</clipPath>
</defs>
</svg>
